<?xml version="1.0" encoding="UTF-8"?>
<svg id="Layer_1" xmlns="http://www.w3.org/2000/svg" viewBox="0 0 945.88 458.35">
  <defs>
    <style>
      .cls-1 {
        fill: #231f20;
      }

      .cls-2 {
        fill: #0077b5;
      }
    </style>
  </defs>
  <g>
    <g>
      <path class="cls-2" d="M152.92,239.44c-.2-.18-.7-.64-.73-1.28-.03-.53.2-1.04.6-1.35l-2.8-.53c-.33.38-.53.55-.54.55-.46.35-.71.89-.69,1.47.04.57.34,1.09.84,1.39.06.03.51.31,1.37.71-.68,3.46-3.2,6.31-6.62,7.37-7.93,2.47-16.73,3.9-26,4.05,3.17,2.53,6.52,4.86,10.02,6.96,3.17,1.9,6.46,3.61,9.86,5.12.72-2.5,2.67-5.59,4.95-7.82,3.37-3.28,7.25-4.45,12.04-5.9,3.74-1.13,6.97-1.65,9.25-1.92.22-1.59.44-3.18.66-4.77-.57-.14-10.63-2.61-12.21-4.05Z"/>
      <path class="cls-2" d="M174.99,90.06c-50.14,0-90.79,40.65-90.79,90.8,0,13.26,2.84,25.86,7.96,37.22,1.44-.59,2.86-1.23,4.2-2.01l6.32-3.5c1.41,0,2.61.98,2.93,2.29l7,15.43c.23.52.99.39,1.05-.17l.88-8.9c-1.19-.44-2.06-1.53-2.06-2.85v-1.42c0-.77.21-1.32.65-1.87,1.19.33,2.5.55,3.7.55s2.5-.22,3.7-.55c.44.55.66,1.21.66,1.87v1.42c0,1.32-.87,2.41-2.08,2.85l.89,8.9c.06.56.82.69,1.05.17l6.99-15.43c.34-1.31,1.53-2.29,2.95-2.29l6.31,3.5c2.62,1.53,5.56,2.52,8.39,3.62,2.62.98,4.46,3.38,4.9,6.23.43,2.86.67,5.72.69,8.58-.51.83-.96,1.41-1.29,1.78l2.8.53s5.41-4.72,5.41-20.96c0-17.81,12.38-23.8,18.03-23.8,4.35,0,5.97.97,8.12,3.17h.89c5.98,0,9.01,6.94,9.01,20.63,0,16.24,5.37,20.92,5.43,20.97.09.08.17.17.24.26.23.31.35.7.33,1.1-.04.52-.3,1-.73,1.26-.18.11-4.26,2.63-12.2,4.04.26,1.57.52,3.13.78,4.7,2.21.23,4.71.66,7.39,1.43,6.71,1.92,11.72,5.15,14.97,7.71,2.11,1.67,3.45,3.57,4.09,5.28,5.73-2.77,11.13-6.14,16.11-10.01-10.63-.32-20.79-1.85-26.93-4.59-.22-.09-.47-.9-.91-3.26,0-.05-.36-1.96-.52-4.75.32-.17.5-.27.54-.3.49-.28.79-.8.83-1.37.04-.56-.21-1.12-.65-1.48-.01-.01-.13-.1-.32-.3l-.43-.48c.26-6.52,2.26-14.81,10.23-17.8,9.38-3.07,13.27-6.9,13.27-6.9l.31.3c2.79,2.63,5.86,4.18,8.67,4.18h.26c2.81,0,5.88-1.55,8.67-4.18l.31-.3s3.89,3.83,13.27,6.9c.14.05.28.11.42.17,5.21-11.45,8.11-24.17,8.11-37.57,0-50.15-40.65-90.8-90.8-90.8ZM132.41,190.68c0,1.52-.24,2.92-.76,3.49-.4.44-.64,1-.74,1.59-1.56,9.33-8.37,14.6-14.08,14.6s-12.49-5.24-14.07-14.63c-.11-.63-.4-1.22-.83-1.69-.54-.59-.75-1.95-.68-3.36,0-1.89-.4-4.3.41-5.03.2-.21.6-.31,1.11-.1,1.32-8.59,5.56-14.03,14.06-14.03s12.74,5.44,14.06,14.03c.51-.11.81-.11,1.11.1.81.73.41,3.25.41,5.03ZM249.23,195.74c-.52,1.96-1.2,2.49-1.37,2.95-1.65,7.79-7.09,14.44-12.94,14.44s-11.59-6.65-13.24-14.44c-.16-.46-.84-.99-1.36-2.95-.58-1.95-.71-3.83-.18-4.43l.11-.13c.68-.62.72-.67.72-.67,0,0-.69-3.51-.69-6.7,0-1.28.11-2.51.42-3.44,1.81-5.49,8.16-8.38,9.38-8.85,1.86-.82,3.47-.49,3.47-.49.08,0,1.33.25,1.33.25,2.05.41,12.25,3.89,13.96,9.09,1.09,3.25-.27,10.14-.27,10.14,0,0,.05.05.72.67l.12.13c.54.47.39,2.48-.18,4.43Z"/>
    </g>
    <path class="cls-2" d="M350,24.6v310c0,11.05-8.96,20-20,20H118.37l26.78-50.15c9.57,2.3,19.57,3.52,29.84,3.52,70.21,0,127.12-56.91,127.12-127.11s-56.91-127.12-127.12-127.12-127.11,56.91-127.11,127.12c0,46.97,25.48,87.98,63.36,109.99l-34.04,63.75H20c-11.05,0-20-8.95-20-20V24.6C0,13.56,8.95,4.6,20,4.6h310c11.04,0,20,8.96,20,20Z"/>
  </g>
  <g>
    <path class="cls-1" d="M389.14,147.36h102.59c12.47,0,24.19,1.81,35.15,5.42,10.96,3.62,20.57,9.43,28.82,17.44,8.25,8.02,14.78,18.57,19.61,31.66,4.83,13.09,7.24,29.12,7.24,48.07s-2.42,34.93-7.24,47.93c-4.83,13-11.36,23.55-19.61,31.66-8.25,8.11-17.85,13.97-28.82,17.59-10.96,3.62-22.68,5.42-35.15,5.42h-102.59v-205.19ZM485.7,312.68c6.81,0,13.27-.98,19.38-2.93,6.11-1.95,11.41-5.37,15.92-10.26,4.51-4.88,8.06-11.33,10.66-19.35,2.6-8.01,3.91-18.07,3.91-30.19s-1.3-22.23-3.91-30.34c-2.6-8.11-6.16-14.56-10.66-19.35-4.5-4.79-9.81-8.16-15.92-10.11-6.11-1.95-12.57-2.93-19.38-2.93h-49.56v125.46h49.56Z"/>
    <path class="cls-1" d="M591.29,312.68h37.96c6.83,0,13.26-.68,19.28-2.05,6.03-1.36,11.3-3.71,15.82-7.04,4.52-3.32,8.08-7.72,10.69-13.19,2.61-5.47,3.92-12.31,3.92-20.52v-122.53h47v122.53c0,15.64-2.56,28.73-7.68,39.28-5.12,10.55-12.1,19.05-20.94,25.5-8.84,6.45-19.08,11.04-30.73,13.78-11.65,2.74-24.1,4.1-37.36,4.1h-37.96v-39.87Z"/>
    <path class="cls-1" d="M752.47,147.36h102.59c12.47,0,24.19,1.81,35.15,5.42,10.96,3.62,20.57,9.43,28.82,17.44,8.25,8.02,14.78,18.57,19.61,31.66,4.83,13.09,7.24,29.12,7.24,48.07s-2.41,34.93-7.24,47.93c-4.83,13-11.36,23.55-19.61,31.66-8.25,8.11-17.86,13.97-28.82,17.59-10.96,3.62-22.68,5.42-35.15,5.42h-102.59v-205.19ZM849.02,312.68c6.81,0,13.27-.98,19.38-2.93,6.11-1.95,11.41-5.37,15.92-10.26,4.51-4.88,8.06-11.33,10.66-19.35,2.6-8.01,3.91-18.07,3.91-30.19s-1.3-22.23-3.91-30.34c-2.6-8.11-6.16-14.56-10.66-19.35-4.5-4.79-9.81-8.16-15.92-10.11-6.11-1.95-12.57-2.93-19.38-2.93h-49.56v125.46h49.56Z"/>
  </g>
  <g>
    <path class="cls-1" d="M393.9,97.18h61.26c3.92,0,7.22-.89,9.9-2.69,2.69-1.79,4.03-4.98,4.03-9.57s-1.37-7.78-4.11-9.57c-2.74-1.79-6.02-2.69-9.82-2.69h-27.69c-5.6,0-10.66-.61-15.19-1.85-4.53-1.23-8.39-3.22-11.58-5.96-3.19-2.74-5.65-6.35-7.38-10.83-1.74-4.47-2.6-9.96-2.6-16.45s.87-12.31,2.6-16.78c1.73-4.47,4.2-8.08,7.38-10.83,3.19-2.74,7.05-4.67,11.58-5.79,4.53-1.12,9.59-1.68,15.19-1.68h64.45v22.83h-61.26c-3.81,0-7.05.9-9.73,2.69-2.69,1.79-4.03,4.98-4.03,9.57s1.35,7.78,4.04,9.57c2.69,1.79,5.94,2.69,9.76,2.69h27.75c5.61,0,10.68.59,15.22,1.76,4.54,1.17,8.41,3.16,11.61,5.96,3.19,2.8,5.66,6.44,7.4,10.91,1.74,4.48,2.61,9.96,2.61,16.45s-.87,12.31-2.62,16.78c-1.75,4.48-4.22,8.06-7.43,10.74-3.21,2.69-7.09,4.62-11.65,5.79-4.56,1.17-9.63,1.76-15.23,1.76h-64.45v-22.83Z"/>
    <path class="cls-1" d="M547.47,2.52h26.69l52.36,117.49h-29.04l-9.73-22.83h-54.04l-9.57,22.83h-29.04L547.47,2.52ZM578.18,74.35c-3.02-7.16-5.9-13.93-8.64-20.31-2.74-6.38-5.68-13.26-8.81-20.64l-17.29,40.95h34.74Z"/>
    <path class="cls-1" d="M627.36,2.52h26.18v70.16c0,4.7.73,8.62,2.18,11.75,1.45,3.13,3.44,5.65,5.96,7.55,2.52,1.9,5.45,3.25,8.81,4.03,3.36.78,6.99,1.17,10.91,1.17h30.88v22.83h-30.88c-7.38,0-14.33-.78-20.82-2.35-6.5-1.57-12.22-4.2-17.17-7.89-4.96-3.69-8.87-8.56-11.74-14.6s-4.31-13.54-4.31-22.49V2.52Z"/>
    <path class="cls-1" d="M716.98,61.26c0-11.3,1.48-20.87,4.45-28.7,2.96-7.83,7.02-14.15,12.17-18.97,5.14-4.81,11.22-8.28,18.21-10.41,6.99-2.12,14.46-3.19,22.41-3.19s15.02,1.06,21.9,3.19c6.88,2.13,12.92,5.6,18.13,10.41,5.2,4.81,9.34,11.14,12.42,18.97,3.08,7.83,4.62,17.4,4.62,28.7s-1.54,20.84-4.62,28.62c-3.08,7.78-7.22,14.07-12.42,18.88-5.2,4.81-11.25,8.28-18.13,10.41-6.88,2.12-14.18,3.19-21.9,3.19s-15.42-1.06-22.41-3.19c-6.99-2.12-13.07-5.59-18.21-10.41-5.15-4.81-9.21-11.1-12.17-18.88-2.97-7.78-4.45-17.31-4.45-28.62ZM774.21,99.53c4.25,0,8.25-.59,12-1.76,3.75-1.17,7.02-3.24,9.82-6.21,2.8-2.96,5.01-6.91,6.63-11.83,1.62-4.92,2.43-11.08,2.43-18.46s-.81-13.57-2.43-18.55c-1.62-4.98-3.83-8.92-6.63-11.83-2.8-2.91-6.07-4.98-9.82-6.21-3.75-1.23-7.75-1.85-12-1.85s-8.28.62-12.08,1.85c-3.81,1.23-7.11,3.3-9.9,6.21-2.8,2.91-5.01,6.86-6.63,11.83-1.62,4.98-2.43,11.16-2.43,18.55s.81,13.54,2.43,18.46c1.62,4.93,3.83,8.87,6.63,11.83,2.79,2.97,6.1,5.04,9.9,6.21,3.8,1.17,7.83,1.76,12.08,1.76Z"/>
    <path class="cls-1" d="M842.69,2.52h31.89l43.13,78.21V2.52h26.18v117.49h-31.89l-43.13-78.38v78.38h-26.18V2.52Z"/>
  </g>
  <g>
    <path class="cls-1" d="M3.84,400.74h21.76c2.65,0,5.13.39,7.46,1.18,2.32.79,4.36,2.06,6.11,3.81,1.75,1.75,3.12,4.05,4.13,6.91,1,2.86,1.5,6.36,1.5,10.5s-.5,7.64-1.5,10.5c-1,2.86-2.38,5.16-4.13,6.91s-3.79,3.02-6.11,3.81c-2.33.79-4.81,1.18-7.46,1.18H3.84v-44.8ZM24.32,437.86c1.58,0,3.07-.23,4.48-.7,1.41-.47,2.63-1.27,3.68-2.4,1.04-1.13,1.87-2.63,2.46-4.51.6-1.88.9-4.25.9-7.1s-.3-5.23-.9-7.1c-.6-1.88-1.42-3.38-2.46-4.51-1.05-1.13-2.27-1.93-3.68-2.4-1.41-.47-2.9-.7-4.48-.7h-11.52v29.44h11.52Z"/>
    <path class="cls-1" d="M48.64,433.57c0-2.26.3-4.16.9-5.7.6-1.54,1.41-2.76,2.43-3.68,1.02-.92,2.23-1.58,3.62-1.98,1.39-.41,2.87-.61,4.45-.61h15.49c0-1.32-.26-2.45-.77-3.39-.51-.94-1.18-1.68-2.02-2.24-.83-.55-1.8-.96-2.91-1.22-1.11-.26-2.3-.38-3.58-.38h-15.04v-7.23h16.13c2.26,0,4.38.25,6.37.74,1.98.49,3.73,1.31,5.25,2.46,1.51,1.15,2.71,2.65,3.58,4.48.87,1.83,1.31,4.1,1.31,6.78v23.94h-23.81c-1.58,0-3.06-.2-4.45-.61-1.39-.4-2.59-1.08-3.62-2.02-1.02-.94-1.83-2.18-2.43-3.71-.6-1.54-.9-3.41-.9-5.63ZM56.96,433.57c0,1.75.48,2.98,1.44,3.68s2.08,1.06,3.36,1.06h13.76v-9.54h-13.76c-1.28,0-2.4.34-3.36,1.02-.96.68-1.44,1.94-1.44,3.78Z"/>
    <path class="cls-1" d="M90.88,394.34h8.96v30.02l15.04-17.22h11.52l-17.09,19.2,17.09,19.2h-11.52l-15.04-17.22v17.22h-8.96v-51.2Z"/>
    <path class="cls-1" d="M128.32,433.57c0-2.26.3-4.16.9-5.7.6-1.54,1.41-2.76,2.43-3.68,1.02-.92,2.23-1.58,3.62-1.98,1.39-.41,2.87-.61,4.45-.61h15.49c0-1.32-.26-2.45-.77-3.39-.51-.94-1.18-1.68-2.02-2.24-.83-.55-1.8-.96-2.91-1.22-1.11-.26-2.3-.38-3.58-.38h-15.04v-7.23h16.13c2.26,0,4.38.25,6.37.74,1.98.49,3.73,1.31,5.25,2.46,1.51,1.15,2.71,2.65,3.58,4.48.87,1.83,1.31,4.1,1.31,6.78v23.94h-23.81c-1.58,0-3.06-.2-4.45-.61-1.39-.4-2.59-1.08-3.62-2.02-1.02-.94-1.83-2.18-2.43-3.71-.6-1.54-.9-3.41-.9-5.63ZM136.64,433.57c0,1.75.48,2.98,1.44,3.68s2.08,1.06,3.36,1.06h13.76v-9.54h-13.76c-1.28,0-2.4.34-3.36,1.02-.96.68-1.44,1.94-1.44,3.78Z"/>
    <path class="cls-1" d="M169.92,421.67c0-2.69.44-4.96,1.31-6.82.87-1.86,2.06-3.36,3.55-4.51,1.49-1.15,3.24-1.97,5.25-2.46,2-.49,4.14-.74,6.4-.74h12.29v15.36h-8.32v-8.13h-2.88c-1.28,0-2.49.13-3.62.38-1.13.26-2.11.67-2.94,1.25-.83.58-1.49,1.32-1.98,2.24-.49.92-.74,2.06-.74,3.42v23.87h-8.32v-23.87Z"/>
    <path class="cls-1" d="M234.56,437.86h7.68c1.58,0,3.07-.17,4.48-.51,1.41-.34,2.63-.91,3.68-1.7,1.04-.79,1.87-1.83,2.46-3.14.6-1.3.9-2.93.9-4.9v-26.88h8.96v26.88c0,3.37-.54,6.2-1.63,8.48-1.09,2.28-2.56,4.13-4.42,5.54-1.86,1.41-4.02,2.41-6.5,3.01-2.48.6-5.12.9-7.94.9h-7.68v-7.68Z"/>
    <path class="cls-1" d="M267.84,426.34c0-3.71.49-6.85,1.47-9.41.98-2.56,2.31-4.64,3.99-6.24,1.68-1.6,3.65-2.75,5.91-3.46s4.69-1.06,7.28-1.06,4.96.35,7.22,1.06c2.26.7,4.24,1.86,5.94,3.46,1.7,1.6,3.06,3.68,4.06,6.24,1,2.56,1.5,5.7,1.5,9.41s-.5,6.85-1.5,9.41-2.35,4.64-4.06,6.24c-1.7,1.6-3.68,2.75-5.94,3.46-2.26.7-4.66,1.06-7.22,1.06s-5.03-.35-7.28-1.06-4.23-1.86-5.91-3.46c-1.68-1.6-3.01-3.68-3.99-6.24s-1.47-5.7-1.47-9.41ZM286.52,439.27c1.41,0,2.74-.21,4-.64,1.26-.43,2.36-1.13,3.3-2.11.94-.98,1.69-2.3,2.24-3.97.55-1.66.83-3.73.83-6.21s-.28-4.54-.83-6.21c-.56-1.66-1.3-2.99-2.24-3.97-.94-.98-2.04-1.68-3.3-2.11-1.26-.43-2.59-.64-4-.64s-2.74.21-4,.64c-1.26.43-2.36,1.13-3.3,2.11-.94.98-1.69,2.3-2.24,3.97-.55,1.66-.83,3.73-.83,6.21s.28,4.54.83,6.21c.55,1.66,1.3,2.99,2.24,3.97.94.98,2.04,1.69,3.3,2.11,1.26.43,2.59.64,4,.64Z"/>
    <path class="cls-1" d="M311.04,394.34h8.32v12.8h10.37c2.26,0,4.39.33,6.4.99,2,.66,3.75,1.75,5.25,3.26,1.49,1.51,2.68,3.49,3.55,5.92.87,2.43,1.31,5.44,1.31,9.02s-.44,6.59-1.31,9.02c-.88,2.43-2.06,4.41-3.55,5.92-1.49,1.51-3.24,2.6-5.25,3.26-2.01.66-4.14.99-6.4.99h-18.69v-51.2ZM328.64,438.31c1.28,0,2.48-.19,3.62-.58,1.13-.38,2.11-1.03,2.94-1.95.83-.92,1.49-2.14,1.98-3.68.49-1.54.74-3.46.74-5.76s-.25-4.22-.74-5.76c-.49-1.54-1.15-2.76-1.98-3.68-.83-.92-1.81-1.57-2.94-1.95-1.13-.38-2.34-.58-3.62-.58h-9.28v23.94h9.28Z"/>
    <path class="cls-1" d="M384,400.74h21.76c2.65,0,5.13.39,7.46,1.18,2.32.79,4.36,2.06,6.11,3.81,1.75,1.75,3.12,4.05,4.13,6.91,1,2.86,1.5,6.36,1.5,10.5s-.5,7.64-1.5,10.5c-1,2.86-2.38,5.16-4.13,6.91s-3.79,3.02-6.11,3.81c-2.33.79-4.81,1.18-7.46,1.18h-21.76v-44.8ZM404.48,437.86c1.58,0,3.07-.23,4.48-.7,1.41-.47,2.63-1.27,3.68-2.4,1.04-1.13,1.87-2.63,2.46-4.51.6-1.88.9-4.25.9-7.1s-.3-5.23-.9-7.1c-.6-1.88-1.42-3.38-2.46-4.51-1.05-1.13-2.27-1.93-3.68-2.4-1.41-.47-2.9-.7-4.48-.7h-11.52v29.44h11.52Z"/>
    <path class="cls-1" d="M428.8,433.57c0-2.26.3-4.16.9-5.7.6-1.54,1.41-2.76,2.43-3.68,1.02-.92,2.23-1.58,3.62-1.98,1.39-.41,2.87-.61,4.45-.61h15.49c0-1.32-.26-2.45-.77-3.39-.51-.94-1.18-1.68-2.02-2.24-.83-.55-1.8-.96-2.91-1.22-1.11-.26-2.3-.38-3.58-.38h-15.04v-7.23h16.13c2.26,0,4.38.25,6.37.74,1.98.49,3.73,1.31,5.25,2.46,1.51,1.15,2.71,2.65,3.58,4.48.87,1.83,1.31,4.1,1.31,6.78v23.94h-23.81c-1.58,0-3.06-.2-4.45-.61-1.39-.4-2.59-1.08-3.62-2.02-1.02-.94-1.83-2.18-2.43-3.71-.6-1.54-.9-3.41-.9-5.63ZM437.12,433.57c0,1.75.48,2.98,1.44,3.68s2.08,1.06,3.36,1.06h13.76v-9.54h-13.76c-1.28,0-2.4.34-3.36,1.02-.96.68-1.44,1.94-1.44,3.78Z"/>
    <path class="cls-1" d="M474.24,414.18h-6.4v-7.23h6.4v-9.41h8.32v9.41h8.96v7.23h-8.96v19.84c0,1.62.53,2.74,1.6,3.36,1.07.62,2.35.93,3.84.93h3.52v7.23h-4.61c-1.75,0-3.39-.22-4.93-.67-1.54-.45-2.88-1.17-4.03-2.18-1.15-1-2.06-2.31-2.72-3.94-.66-1.62-.99-3.63-.99-6.02v-18.56Z"/>
    <path class="cls-1" d="M497.91,394.34h8.32v8.32h-8.32v-8.32ZM497.91,407.14h8.32v38.4h-8.32v-38.4Z"/>
    <path class="cls-1" d="M513.91,407.14h17.41c2.26,0,4.39.25,6.4.74,2,.49,3.75,1.31,5.25,2.46,1.49,1.15,2.68,2.66,3.55,4.51.87,1.86,1.31,4.13,1.31,6.82v23.87h-8.32v-23.87c0-1.37-.25-2.51-.74-3.42-.49-.92-1.15-1.66-1.98-2.24s-1.81-.99-2.94-1.25c-1.13-.26-2.34-.38-3.62-.38h-8v31.17h-8.32v-38.4Z"/>
    <path class="cls-1" d="M573.12,451.11c1.88,0,3.47-.42,4.77-1.25s1.95-2.27,1.95-4.32h-10.37c-2.26,0-4.39-.33-6.4-.99-2.01-.66-3.75-1.75-5.25-3.26-1.49-1.51-2.68-3.49-3.55-5.92-.88-2.43-1.31-5.44-1.31-9.02s.44-6.59,1.31-9.02c.87-2.43,2.06-4.41,3.55-5.92,1.49-1.51,3.24-2.6,5.25-3.26,2-.66,4.14-.99,6.4-.99h18.69v38.4c0,2.39-.33,4.39-.99,6.02-.66,1.62-1.57,2.93-2.72,3.94-1.15,1-2.5,1.73-4.03,2.18s-3.18.67-4.93.67h-19.97v-7.23h17.6ZM579.83,438.31v-23.94h-9.28c-1.28,0-2.49.19-3.62.58-1.13.38-2.11,1.04-2.94,1.95-.83.92-1.49,2.14-1.98,3.68s-.74,3.46-.74,5.76.25,4.22.74,5.76c.49,1.54,1.15,2.76,1.98,3.68.83.92,1.81,1.57,2.94,1.95,1.13.38,2.34.58,3.62.58h9.28Z"/>
  </g>
  <g>
    <path class="cls-2" d="M935.88,394.35h-312.8c-5.53,0-10,4.48-10,10v44c0,5.52,4.47,10,10,10h312.8c5.52,0,10-4.48,10-10v-44c0-5.52-4.48-10-10-10ZM647.11,417.23h-9.6c-.88,0-1.71.11-2.48.34-.78.23-1.48.6-2.1,1.12-.63.52-1.16,1.21-1.6,2.08-.44.87-.74,1.95-.9,3.26h16.68v4.8h-16.68c.16,1.31.46,2.39.9,3.26s.97,1.56,1.6,2.08c.62.52,1.32.89,2.1,1.12.77.23,1.6.34,2.48.34h9.6v4.8h-10.4c-1.66,0-3.21-.25-4.66-.74-1.46-.49-2.73-1.29-3.82-2.38-1.1-1.09-1.96-2.53-2.58-4.32-.63-1.79-.94-3.97-.94-6.56s.31-4.77.94-6.56c.62-1.79,1.48-3.23,2.58-4.32,1.09-1.09,2.36-1.89,3.82-2.38,1.45-.49,3-.74,4.66-.74h10.4v4.8ZM676.57,432.99c-.63,1.79-1.49,3.23-2.58,4.32-1.1,1.09-2.37,1.89-3.82,2.38-1.46.49-3.01.74-4.66.74h-13.6v-28h13.6c1.65,0,3.2.25,4.66.74,1.45.49,2.72,1.29,3.82,2.38,1.09,1.09,1.95,2.53,2.58,4.32.62,1.79.94,3.97.94,6.56s-.32,4.77-.94,6.56ZM686.71,440.43h-5.6v-28h5.6v28ZM714.55,417.23h-10v23.2h-5.6v-23.2h-10v-4.8h25.6v4.8ZM722.39,440.43h-5.6v-28h5.6v28ZM752.11,433.27c-.72,1.87-1.7,3.37-2.94,4.52-1.24,1.15-2.69,1.97-4.34,2.48-1.66.51-3.4.76-5.24.76s-3.67-.25-5.32-.76c-1.66-.51-3.1-1.33-4.32-2.48-1.23-1.15-2.2-2.65-2.9-4.52-.71-1.87-1.06-4.15-1.06-6.84s.35-4.97,1.06-6.84c.7-1.87,1.67-3.37,2.9-4.52,1.22-1.15,2.66-1.97,4.32-2.48,1.65-.51,3.42-.76,5.32-.76s3.58.25,5.24.76c1.65.51,3.1,1.33,4.34,2.48,1.24,1.15,2.22,2.65,2.94,4.52.72,1.87,1.08,4.15,1.08,6.84s-.36,4.97-1.08,6.84ZM780.79,440.43h-7.2l-11.2-20.36v20.36h-5.6v-28h7.2l11.2,20.36v-20.36h5.6v28ZM831.39,435.63v4.8h-24v-8.2c0-1.52.19-2.81.59-3.86.41-1.05.98-1.9,1.72-2.54.75-.64,1.66-1.1,2.73-1.38,1.06-.28,2.25-.42,3.55-.42h6.41c1.04,0,1.93-.25,2.67-.76.75-.51,1.13-1.39,1.13-2.64s-.38-2.17-1.13-2.66c-.74-.49-1.63-.74-2.67-.74h-14.2v-4.8h15c1.3,0,2.49.13,3.55.4,1.07.27,1.98.72,2.72,1.36.75.64,1.32,1.49,1.73,2.54.39,1.05.59,2.35.59,3.9s-.2,2.81-.59,3.86c-.41,1.05-.98,1.9-1.73,2.54-.74.64-1.65,1.1-2.72,1.38-1.06.28-2.25.42-3.55.42h-6.41c-1.04,0-1.93.25-2.68.76-.74.51-1.12,1.39-1.12,2.64v3.4h18.41ZM863.4,433.27c-.65,1.87-1.54,3.37-2.66,4.52-1.12,1.15-2.43,1.97-3.94,2.48-1.5.51-3.11.76-4.82.76s-3.31-.25-4.82-.76c-1.5-.51-2.82-1.33-3.93-2.48-1.13-1.15-2.01-2.65-2.67-4.52-.65-1.87-.98-4.15-.98-6.84s.33-4.97.98-6.84c.66-1.87,1.54-3.37,2.67-4.52,1.11-1.15,2.43-1.97,3.93-2.48,1.51-.51,3.12-.76,4.82-.76s3.32.25,4.82.76c1.51.51,2.82,1.33,3.94,2.48,1.12,1.15,2.01,2.65,2.66,4.52.66,1.87.98,4.15.98,6.84s-.32,4.97-.98,6.84ZM896.18,435.63v4.8h-24v-8.2c0-1.52.2-2.81.6-3.86.4-1.05.98-1.9,1.72-2.54.75-.64,1.66-1.1,2.72-1.38,1.07-.28,2.26-.42,3.56-.42h6.4c1.04,0,1.94-.25,2.68-.76.75-.51,1.12-1.39,1.12-2.64s-.37-2.17-1.12-2.66c-.74-.49-1.64-.74-2.68-.74h-14.2v-4.8h15c1.31,0,2.5.13,3.56.4,1.07.27,1.98.72,2.72,1.36.75.64,1.32,1.49,1.72,2.54.4,1.05.6,2.35.6,3.9s-.2,2.81-.6,3.86c-.4,1.05-.97,1.9-1.72,2.54-.74.64-1.65,1.1-2.72,1.38-1.06.28-2.25.42-3.56.42h-6.4c-1.04,0-1.93.25-2.68.76-.74.51-1.12,1.39-1.12,2.64v3.4h18.4ZM928.78,435.95c-.4,1.09-.97,1.97-1.72,2.64-.74.67-1.65,1.14-2.72,1.42-1.06.28-2.25.42-3.56.42h-15.8v-4.8h15c1.04,0,1.94-.27,2.68-.82.75-.55,1.12-1.54,1.12-2.98s-.37-2.37-1.12-2.94c-.74-.57-1.64-.86-2.68-.86h-15v-15.6h22.8v4.8h-17.2v6h10.2c1.31,0,2.5.15,3.56.44,1.07.29,1.98.78,2.72,1.46.75.68,1.32,1.57,1.72,2.66.4,1.09.6,2.44.6,4.04s-.2,3.03-.6,4.12Z"/>
    <g>
      <path class="cls-2" d="M671.91,426.43c0,1.79-.19,3.27-.56,4.44-.38,1.17-.89,2.11-1.54,2.82-.66.71-1.42,1.21-2.3,1.5-.88.29-1.82.44-2.8.44h-7.2v-18.4h7.2c.98,0,1.92.15,2.8.44.88.29,1.64.79,2.3,1.5.65.71,1.16,1.65,1.54,2.82.37,1.17.56,2.65.56,4.44Z"/>
      <path class="cls-2" d="M747.59,426.43c0,1.89-.22,3.47-.64,4.74-.43,1.27-1,2.27-1.72,3.02-.72.75-1.57,1.27-2.54,1.58-.98.31-2.01.46-3.1.46s-2.17-.15-3.14-.46c-.98-.31-1.82-.83-2.54-1.58-.72-.75-1.29-1.75-1.7-3.02-.42-1.27-.62-2.85-.62-4.74s.2-3.47.62-4.74c.41-1.27.98-2.27,1.7-3.02.72-.75,1.56-1.27,2.54-1.58.97-.31,2.02-.46,3.14-.46s2.12.15,3.1.46c.97.31,1.82.83,2.54,1.58.72.75,1.29,1.75,1.72,3.02.42,1.27.64,2.85.64,4.74Z"/>
      <path class="cls-2" d="M858.78,426.43c0,1.89-.18,3.47-.54,4.74-.36,1.27-.84,2.27-1.46,3.02-.61.75-1.33,1.27-2.16,1.58-.82.31-1.7.46-2.64.46s-1.81-.15-2.64-.46c-.82-.31-1.54-.83-2.15-1.58-.62-.75-1.11-1.75-1.46-3.02-.37-1.27-.54-2.85-.54-4.74s.17-3.47.54-4.74c.35-1.27.84-2.27,1.46-3.02.61-.75,1.33-1.27,2.15-1.58.83-.31,1.71-.46,2.64-.46s1.82.15,2.64.46c.83.31,1.55.83,2.16,1.58.62.75,1.1,1.75,1.46,3.02.36,1.27.54,2.85.54,4.74Z"/>
    </g>
  </g>
</svg>